<svg width="120" height="120" viewBox="0 0 120 120" fill="none" xmlns="http://www.w3.org/2000/svg">
<rect width="120" height="120" rx="12" fill="#1A1A1A"/>
<path d="M23.476 100.13V102.314H19.528V104.05H22.44V106.136H19.528V110H16.784V100.13H23.476ZM29.3637 110.098C28.4397 110.098 27.5903 109.883 26.8157 109.454C26.041 109.015 25.425 108.413 24.9677 107.648C24.5197 106.873 24.2957 106.001 24.2957 105.03C24.2957 104.059 24.5197 103.191 24.9677 102.426C25.425 101.651 26.041 101.049 26.8157 100.62C27.5903 100.191 28.4397 99.976 29.3637 99.976C30.297 99.976 31.1463 100.191 31.9117 100.62C32.6863 101.049 33.2977 101.651 33.7457 102.426C34.1937 103.191 34.4177 104.059 34.4177 105.03C34.4177 106.001 34.1937 106.873 33.7457 107.648C33.2977 108.413 32.6863 109.015 31.9117 109.454C31.137 109.883 30.2877 110.098 29.3637 110.098ZM29.3637 107.55C30.0637 107.55 30.6143 107.321 31.0157 106.864C31.4263 106.407 31.6317 105.795 31.6317 105.03C31.6317 104.246 31.4263 103.63 31.0157 103.182C30.6143 102.725 30.0637 102.496 29.3637 102.496C28.6543 102.496 28.099 102.725 27.6977 103.182C27.2963 103.63 27.0957 104.246 27.0957 105.03C27.0957 105.805 27.2963 106.421 27.6977 106.878C28.099 107.326 28.6543 107.55 29.3637 107.55ZM35.3152 105.044C35.3152 104.073 35.5159 103.21 35.9172 102.454C36.3279 101.689 36.9065 101.096 37.6532 100.676C38.3999 100.247 39.2585 100.032 40.2292 100.032C41.4612 100.032 42.4972 100.363 43.3372 101.026C44.1772 101.679 44.7185 102.571 44.9612 103.7H42.0072C41.8299 103.327 41.5825 103.042 41.2652 102.846C40.9572 102.65 40.5979 102.552 40.1872 102.552C39.5525 102.552 39.0439 102.781 38.6612 103.238C38.2879 103.686 38.1012 104.288 38.1012 105.044C38.1012 105.809 38.2879 106.421 38.6612 106.878C39.0439 107.326 39.5525 107.55 40.1872 107.55C40.5979 107.55 40.9572 107.452 41.2652 107.256C41.5825 107.06 41.8299 106.775 42.0072 106.402H44.9612C44.7185 107.531 44.1772 108.427 43.3372 109.09C42.4972 109.743 41.4612 110.07 40.2292 110.07C39.2585 110.07 38.3999 109.86 37.6532 109.44C36.9065 109.011 36.3279 108.418 35.9172 107.662C35.5159 106.897 35.3152 106.024 35.3152 105.044ZM48.9486 100.13V105.856C48.9486 106.388 49.0699 106.799 49.3126 107.088C49.5646 107.377 49.9426 107.522 50.4466 107.522C50.9506 107.522 51.3286 107.377 51.5806 107.088C51.8419 106.789 51.9726 106.379 51.9726 105.856V100.13H54.7166V105.856C54.7166 106.761 54.5252 107.536 54.1426 108.18C53.7599 108.815 53.2372 109.295 52.5746 109.622C51.9212 109.939 51.1932 110.098 50.3906 110.098C49.5879 110.098 48.8692 109.939 48.2346 109.622C47.6092 109.295 47.1146 108.815 46.7506 108.18C46.3959 107.545 46.2186 106.771 46.2186 105.856V100.13H48.9486ZM59.9514 110.098C58.8034 110.098 57.8607 109.827 57.1234 109.286C56.386 108.735 55.9894 107.951 55.9334 106.934H58.8594C58.8874 107.279 58.99 107.531 59.1674 107.69C59.3447 107.849 59.5734 107.928 59.8534 107.928C60.1054 107.928 60.3107 107.867 60.4694 107.746C60.6374 107.615 60.7214 107.438 60.7214 107.214C60.7214 106.925 60.586 106.701 60.3154 106.542C60.0447 106.383 59.606 106.206 58.9994 106.01C58.3554 105.795 57.8327 105.59 57.4314 105.394C57.0394 105.189 56.694 104.895 56.3954 104.512C56.106 104.12 55.9614 103.611 55.9614 102.986C55.9614 102.351 56.12 101.81 56.4374 101.362C56.7547 100.905 57.1934 100.559 57.7534 100.326C58.3134 100.093 58.948 99.976 59.6574 99.976C60.8054 99.976 61.72 100.247 62.4014 100.788C63.092 101.32 63.4607 102.071 63.5074 103.042H60.5254C60.516 102.743 60.4227 102.519 60.2454 102.37C60.0774 102.221 59.858 102.146 59.5874 102.146C59.382 102.146 59.214 102.207 59.0834 102.328C58.9527 102.449 58.8874 102.622 58.8874 102.846C58.8874 103.033 58.9574 103.196 59.0974 103.336C59.2467 103.467 59.4287 103.583 59.6434 103.686C59.858 103.779 60.1754 103.901 60.5954 104.05C61.2207 104.265 61.734 104.479 62.1354 104.694C62.546 104.899 62.896 105.193 63.1854 105.576C63.484 105.949 63.6334 106.425 63.6334 107.004C63.6334 107.592 63.484 108.119 63.1854 108.586C62.896 109.053 62.4714 109.421 61.9114 109.692C61.3607 109.963 60.7074 110.098 59.9514 110.098ZM71.601 100.13V102.314H67.653V104.05H70.565V106.136H67.653V110H64.909V100.13H71.601ZM75.5007 107.9H78.5667V110H72.7567V100.13H75.5007V107.9ZM84.3656 110.098C83.4416 110.098 82.5923 109.883 81.8176 109.454C81.0429 109.015 80.4269 108.413 79.9696 107.648C79.5216 106.873 79.2976 106.001 79.2976 105.03C79.2976 104.059 79.5216 103.191 79.9696 102.426C80.4269 101.651 81.0429 101.049 81.8176 100.62C82.5923 100.191 83.4416 99.976 84.3656 99.976C85.2989 99.976 86.1483 100.191 86.9136 100.62C87.6883 101.049 88.2996 101.651 88.7476 102.426C89.1956 103.191 89.4196 104.059 89.4196 105.03C89.4196 106.001 89.1956 106.873 88.7476 107.648C88.2996 108.413 87.6883 109.015 86.9136 109.454C86.1389 109.883 85.2896 110.098 84.3656 110.098ZM84.3656 107.55C85.0656 107.55 85.6163 107.321 86.0176 106.864C86.4283 106.407 86.6336 105.795 86.6336 105.03C86.6336 104.246 86.4283 103.63 86.0176 103.182C85.6163 102.725 85.0656 102.496 84.3656 102.496C83.6563 102.496 83.1009 102.725 82.6996 103.182C82.2983 103.63 82.0976 104.246 82.0976 105.03C82.0976 105.805 82.2983 106.421 82.6996 106.878C83.1009 107.326 83.6563 107.55 84.3656 107.55ZM104.555 100.13L102.133 110H98.7591L97.4011 103.952L96.0151 110H92.6411L90.2471 100.13H93.2151L94.3631 106.878L95.9171 100.13H98.9271L100.439 106.822L101.587 100.13H104.555Z" fill="#BFFB4F"/>
<path d="M87.9976 63.2912H79.0004V60.3268H81.9929V57.3818H37.007V60.3268H40.0093V63.2912H31.0023V81H87.9976V63.2912ZM42.992 60.3268H75.9883V63.2912H42.992V60.3268ZM85.0051 78.055H33.9948V66.2362H85.0051V78.055Z" fill="#BFFB4F"/>
<path d="M85.0051 21.9451H81.9929V57.3819H85.0051V21.9451Z" fill="#BFFB4F"/>
<path d="M79.0004 69.1812H63.9985V72.1455H79.0004V69.1812Z" fill="#BFFB4F"/>
<path d="M66.991 39.6731H63.9985V42.6181H66.991V39.6731Z" fill="#BFFB4F"/>
<path d="M66.991 33.7637H63.9985V36.7087H66.991V33.7637Z" fill="#BFFB4F"/>
<path d="M63.9985 42.6182H55.0013V45.5632H63.9985V42.6182Z" fill="#BFFB4F"/>
<path d="M55.0014 39.6731H51.9893V42.6181H55.0014V39.6731Z" fill="#BFFB4F"/>
<path d="M55.0014 33.7637H51.9893V36.7087H55.0014V33.7637Z" fill="#BFFB4F"/>
<path d="M40.0094 54.4369H79.0103V24.9094H40.0094V54.4369ZM42.9921 27.8544H75.9883V51.4725H42.9921V27.8544Z" fill="#BFFB4F"/>
<path d="M46.0042 69.1812H39.9995V75.0905H46.0042V69.1812Z" fill="#BFFB4F"/>
<path d="M81.9929 19H37.007V21.945H81.9929V19Z" fill="#BFFB4F"/>
<path d="M37.0071 21.9451H33.9949V57.3819H37.0071V21.9451Z" fill="#BFFB4F"/>
<g clip-path="url(#clip0_1_4)">
<path d="M14.5109 76.0081L14.3735 75.5274L13.8928 75.6648L13.618 74.7033L13.1372 74.8407L12.8624 73.8792L12.3817 74.0166L12.1069 73.055L11.1454 73.3298L11.4202 74.2913L10.9394 74.4287L11.2142 75.3902L10.7335 75.5276L11.0082 76.4891L10.5275 76.6265L10.6649 77.1073L7.78038 77.9317L8.05517 78.8932L8.53592 78.7558L8.67332 79.2365L9.15407 79.0991L9.29147 79.5799L9.77222 79.4425L9.90961 79.9232L10.3904 79.7858L10.9399 81.7089L10.4592 81.8462L10.734 82.8077L10.2532 82.9451L10.528 83.9066L11.9703 83.4945L11.8329 83.0137L12.7944 82.7389L12.657 82.2582L13.1377 82.1208L13.0004 81.64L14.9234 81.0904L15.0608 81.5712L15.5415 81.4338L15.6789 81.9145L16.6404 81.6397L16.7778 82.1205L18.2201 81.7083L17.9453 80.7468L17.4645 80.8842L17.1897 79.9227L16.709 80.0601L16.1594 78.1371L16.6401 77.9997L16.5027 77.5189L16.9835 77.3815L16.8461 76.9008L17.3268 76.7634L17.1895 76.2826L17.6702 76.1452L17.3954 75.1837L14.5109 76.0081ZM14.9231 77.4504L15.0605 77.9311L14.5797 78.0685L14.8545 79.03L15.3353 78.8926L15.6101 79.8541L14.6486 80.1289L14.5112 79.6482L12.5882 80.1978L12.7256 80.6785L11.7641 80.9533L11.4893 79.9918L11.97 79.8544L11.6952 78.8929L11.2145 79.0303L11.0771 78.5495L10.5963 78.6869L10.4589 78.2062L11.9012 77.794L11.7638 77.3133L12.2445 77.1759L11.9697 76.2144L12.9313 75.9396L13.206 76.9011L13.6868 76.7637L13.8242 77.2444L15.2664 76.8322L15.4038 77.313L14.9231 77.4504Z" fill="#BFFB4F"/>
</g>
<path d="M15.4886 23.6331L15.4932 22.9997L16.76 23.0088L16.7691 21.7419L18.036 21.751L17.9814 29.3522L19.2482 29.3613L19.3029 21.7601L20.5697 21.7692L20.5606 23.0361L21.8275 23.0452L21.8229 23.6787L23.0898 23.6878L23.1035 21.7875L21.8366 21.7783L21.8457 20.5115L20.5789 20.5024L20.588 19.2355L19.9545 19.2309L19.9591 18.5975L19.3256 18.593L19.3302 17.9595L18.0633 17.9504L18.0588 18.5838L17.4253 18.5793L17.4208 19.2127L16.7874 19.2082L16.7782 20.475L15.5114 20.4659L15.5023 21.7328L14.2354 21.7237L14.2217 23.624L15.4886 23.6331Z" fill="#BFFB4F"/>
<path d="M99.3189 81.0449L99.3243 80.2943L100.826 80.3051L100.836 78.8039L102.337 78.8147L102.273 87.8218L103.774 87.8326L103.839 78.8255L105.34 78.8363L105.329 80.3375L106.83 80.3483L106.825 81.0989L108.326 81.1097L108.342 78.8579L106.841 78.8471L106.852 77.3459L105.351 77.3351L105.361 75.8339L104.611 75.8285L104.616 75.0779L103.866 75.0725L103.871 74.3219L102.37 74.3111L102.364 75.0617L101.614 75.0563L101.608 75.8069L100.858 75.8015L100.847 77.3027L99.3459 77.2919L99.3351 78.7931L97.8339 78.7823L97.8177 81.0341L99.3189 81.0449Z" fill="#BFFB4F"/>
<g clip-path="url(#clip1_1_4)">
<path d="M106.813 14.0454L106.899 13.6377L106.492 13.5517L106.664 12.7363L106.256 12.6503L106.428 11.8349L106.02 11.7489L106.192 10.9335L105.377 10.7615L105.205 11.5769L104.797 11.4908L104.625 12.3062L104.218 12.2202L104.045 13.0356L103.638 12.9496L103.552 13.3573L101.106 12.8411L100.934 13.6565L101.341 13.7425L101.255 14.1502L101.663 14.2363L101.577 14.6439L101.985 14.73L101.899 15.1377L102.306 15.2237L101.962 16.8544L101.555 16.7684L101.382 17.5838L100.975 17.4978L100.803 18.3132L102.026 18.5712L102.112 18.1635L102.927 18.3356L103.013 17.9279L103.421 18.0139L103.507 17.6062L105.138 17.9503L105.052 18.358L105.459 18.444L105.373 18.8517L106.189 19.0237L106.103 19.4314L107.326 19.6895L107.498 18.8741L107.09 18.7881L107.262 17.9727L106.855 17.8867L107.199 16.2559L107.606 16.3419L107.692 15.9342L108.1 16.0202L108.186 15.6126L108.594 15.6986L108.68 15.2909L109.087 15.3769L109.259 14.5615L106.813 14.0454ZM106.555 15.2685L106.469 15.6762L106.062 15.5902L105.889 16.4055L106.297 16.4916L106.125 17.3069L105.31 17.1349L105.396 16.7272L103.765 16.3831L103.679 16.7908L102.864 16.6188L103.036 15.8034L103.443 15.8894L103.615 15.074L103.208 14.988L103.294 14.5803L102.886 14.4943L102.972 14.0866L104.195 14.3447L104.281 13.937L104.689 14.023L104.861 13.2076L105.676 13.3797L105.504 14.195L105.912 14.2811L105.826 14.6888L107.049 14.9468L106.963 15.3545L106.555 15.2685Z" fill="#BFFB4F"/>
</g>
<defs>
<clipPath id="clip0_1_4">
<rect width="12" height="12" fill="white" transform="translate(5.58228 73.8796) rotate(-15.9496)"/>
</clipPath>
<clipPath id="clip1_1_4">
<rect width="10" height="10" fill="white" transform="translate(101.064 9) rotate(11.9142)"/>
</clipPath>
</defs>
</svg>
